#!OML:ASF I:\Actors\actors\Patient Classification 1\Patient 1\Session 1\Subject1.ASF
:FULLY-SPECIFIED
:DEGREES
1462
root 1.07901 17.5897 8.44448 15.0659 -7.81658 -11.32
lowerback 3.6321 2.96892 -5.1734
upperback -8.2553 3.4376 -1.06353
thorax -11.1389 2.04854 1.27968
lowerneck -8.84728 4.51711 5.53275
upperneck 20.2152 1.54754 18.8824
head 7.70643 2.89117 5.5508
rclavicle 3.32592e-014 4.77083e-015
rhumerus -19.9369 27.9967 -96.727
rradius 84.734
rwrist 35.5187
rhand -10.5041 -51.3594
rfingers 7.12502
rthumb 15.4982 -800.758
lclavicle 3.32592e-014 4.77083e-015
lhumerus -3.04359 -13.1055 23.5556
lradius 42.7091
lwrist -25.2349
lhand -45.7964 -66.8587
lfingers 7.12502
lthumb -18.5498 -37.7231
rfemur -10.5611 25.4852 20.9247
rtibia 1.70517
rfoot -10.7512 -24.6701
rtoes 1.45057
lfemur -0.424187 -41.9196 -10.499
ltibia -3.86937
lfoot -27.6672 55.746
ltoes 23.259
1463
root 1.09178 17.5918 8.45726 15.2081 -7.76714 -11.365
lowerback 3.54334 2.93728 -5.13288
upperback -8.29653 3.40064 -1.08598
thorax -11.1244 2.02679 1.24161
lowerneck -8.8468 4.54462 5.66882
upperneck 20.2462 1.56542 18.8384
head 7.7204 2.90825 5.51672
rclavicle 5.65915e-014 -1.27222e-014
rhumerus -19.8704 28.1291 -96.6842
rradius 84.9807
rwrist 35.5562
rhand -10.4562 -51.5294
rfingers 7.12502
rthumb 15.5443 -800.925
lclavicle 5.65915e-014 -1.27222e-014
lhumerus -3.80584 -13.3604 23.735
lradius 44.823
lwrist -24.2341
lhand -45.8062 -67.2659
lfingers 7.12502
lthumb -18.5593 -38.1312
rfemur -10.6549 25.4412 20.8691
rtibia 1.63159
rfoot -10.714 -24.6864
rtoes 1.45066
lfemur -0.362289 -42.664 -10.5211
ltibia -3.97589
lfoot -28.5253 56.2918
ltoes 23.7488
1464
root 1.10334 17.5932 8.46995 15.3071 -7.81953 -11.3236
lowerback 3.47036 2.94589 -5.21577
upperback -8.29506 3.40542 -1.12673
thorax -11.0826 2.03351 1.24703
lowerneck -8.8759 4.53004 5.79014
upperneck 20.2076 1.54842 18.721
head 7.71894 2.89718 5.45348
rclavicle -2.84262e-014 9.54166e-015
rhumerus -19.7831 28.028 -96.6496
rradius 85.2009
rwrist 35.8947
rhand -10.3966 -51.4808
rfingers 7.12502
rthumb 15.6017 -800.872
lclavicle -2.84262e-014 9.54166e-015
lhumerus -4.88779 -13.5885 23.9229
lradius 47.7809
lwrist -23.2328
lhand -45.8114 -67.8792
lfingers 7.12502
lthumb -18.5642 -38.745
rfemur -10.7266 25.4746 20.7176
rtibia 1.57877
rfoot -10.7078 -24.7153
rtoes 1.23465
lfemur -0.215249 -43.5005 -10.7349
ltibia -4.0303
lfoot -29.7127 56.8938
ltoes 24.466
1465
root 1.11063 17.5934 8.48132 15.3811 -8.06217 -11.2671
lowerback 3.41521 3.07071 -5.42566
upperback -8.27467 3.55289 -1.19724
thorax -11.0495 2.1181 1.27029
lowerneck -8.80566 4.41392 5.75524
upperneck 19.9362 1.4427 18.7425
head 7.62179 2.82301 5.43959
rclavicle -1.28465e-014 -1.27222e-014
rhumerus -19.7261 27.7162 -96.5084
rradius 85.4526
rwrist 36.212
rhand -10.2309 -51.3557
rfingers 7.12502
rthumb 15.7613 -800.734
lclavicle -1.28465e-014 -1.27222e-014
lhumerus -5.9673 -13.6616 24.1985
lradius 51.2032
lwrist -22.3983
lhand -45.7885 -68.4624
lfingers 7.12502
lthumb -18.5423 -39.3261
rfemur -10.8161 25.6361 20.5429
rtibia 1.60007
rfoot -10.7072 -24.6711
rtoes 0.87834
lfemur 0.0269411 -44.1838 -11.0449
ltibia -4.08558
lfoot -31.136 57.454
ltoes 25.4588
1466
root 1.1182 17.5917 8.49154 15.4742 -8.36774 -11.2337
lowerback 3.34868 3.23607 -5.61883
upperback -8.26608 3.75644 -1.27817
thorax -11.026 2.22818 1.26539
lowerneck -8.75704 4.26716 5.65664
upperneck 19.6733 1.28284 18.8614
head 7.53414 2.72856 5.46738
rclavicle 1.69961e-014 3.33958e-014
rhumerus -19.0137 28.4864 -95.8443
rradius 85.5328
rwrist 35.4484
rhand -10.1103 -52.1608
rfingers 7.12502
rthumb 15.8775 -801.53
lclavicle 1.69961e-014 3.33958e-014
lhumerus -6.81338 -13.6684 24.5072
lradius 54.3857
lwrist -21.4302
lhand -45.5245 -68.7218
lfingers 7.12502
lthumb -18.2883 -39.5615
rfemur -10.9388 25.7825 20.3831
rtibia 1.64015
rfoot -10.6565 -24.5232
rtoes 0.665745
lfemur 0.217833 -44.4533 -11.2701
ltibia -4.20557
lfoot -32.0861 57.7999
ltoes 26.069
1467
root 1.12802 17.5899 8.5007 15.5711 -8.61444 -11.2711
lowerback 3.30912 3.34653 -5.6642
upperback -8.29062 3.89592 -1.35899
thorax -11.0387 2.29578 1.18519
lowerneck -8.78917 4.1826 5.52904
upperneck 19.645 1.12975 19.1652
head 7.53941 2.67243 5.58166
rclavicle 6.36111e-015 -3.18055e-014
rhumerus -19.283 27.4557 -96.1747
rradius 85.9864
rwrist 35.9369
rhand -9.78732 -51.5748
rfingers 7.12502
rthumb 16.1884 -800.919
lclavicle 6.36111e-015 -3.18055e-014
lhumerus -7.3673 -13.7548 24.6516
lradius 56.7659
lwrist -20.4646
lhand -45.3617 -68.675
lfingers 7.12502
lthumb -18.1316 -39.5002
rfemur -11.0193 25.9083 20.315
rtibia 1.61513
rfoot -10.6224 -24.4048
rtoes 0.699497
lfemur 0.320582 -44.3897 -11.3349
ltibia -4.34657
lfoot -32.3345 57.9355
ltoes 26.1476
1468
root 1.13706 17.5886 8.50948 15.6361 -8.84608 -11.3091
lowerback 3.28348 3.41482 -5.69377
upperback -8.33862 3.97696 -1.44713
thorax -11.0801 2.33397 1.09457
lowerneck -8.98427 4.10406 5.385
upperneck 20.0054 0.871495 19.6013
head 7.71556 2.61401 5.76622
rclavicle -5.63306e-014 -1.74931e-014
rhumerus -19.1223 27.5286 -96.1948
rradius 85.9504
rwrist 35.7257
rhand -9.83945 -51.6716
rfingers 7.12502
rthumb 16.1383 -801.02
lclavicle -5.63306e-014 -1.74931e-014
lhumerus -7.6222 -13.8819 24.6162
lradius 58.0778
lwrist -20.0772
lhand -45.7301 -68.8085
lfingers 7.12502
lthumb -18.4861 -39.6669
rfemur -11.0397 26.0344 20.2754
rtibia 1.56345
rfoot -10.6109 -24.3411
rtoes 0.691512
lfemur 0.467589 -44.436 -11.4512
ltibia -4.43199
lfoot -32.7959 58.1018
ltoes 26.4329
1469
root 1.14406 17.5882 8.51764 15.6736 -9.03692 -11.2867
lowerback 3.24378 3.47957 -5.80243
upperback -8.3736 4.04975 -1.51423
thorax -11.1065 2.37561 1.07255
lowerneck -8.57124 4.11567 5.84528
upperneck 19.7335 0.971181 19.2832
head 7.55167 2.62711 5.55637
rclavicle 3.73218e-014 -2.06736e-014
rhumerus -18.9983 27.5663 -96.1681
rradius 85.8659
rwrist 35.7459
rhand -10.0641 -51.6795
rfingers 7.12502
rthumb 15.9219 -801.045
lclavicle 3.73218e-014 -2.06736e-014
lhumerus -7.5334 -13.9213 24.6098
lradius 58.2817
lwrist -20.1546
lhand -46.0212 -68.8823
lfingers 7.12502
lthumb -18.7661 -39.7675
rfemur -11.0422 26.1356 20.1903
rtibia 1.51634
rfoot -10.5439 -24.3554
rtoes 0.477818
lfemur 0.573134 -44.5555 -11.6161
ltibia -4.44045
lfoot -33.4373 58.2221
ltoes 26.9002
1470
root 1.14846 17.588 8.52449 15.6872 -9.17663 -11.2256
lowerback 3.18418 3.53241 -5.99657
upperback -8.38096 4.10594 -1.53546
thorax -11.1001 2.41815 1.15167
lowerneck -8.58425 4.09876 5.7875
upperneck 19.812 0.931557 19.3396
head 7.58187 2.61575 5.5874
rclavicle -1.51573e-014 3.18055e-014
rhumerus -18.8343 27.6481 -96.0636
rradius 85.727
rwrist 35.9913
rhand -10.1961 -51.5954
rfingers 7.12502
rthumb 15.7948 -800.971
lclavicle -1.51573e-014 3.18055e-014
lhumerus -7.13145 -13.8511 24.6876
lradius 57.4147
lwrist -20.3825
lhand -46.0242 -68.6728
lfingers 7.12502
lthumb -18.769 -39.5583
rfemur -11.0316 26.2376 20.0792
rtibia 1.45482
rfoot -10.4449 -24.4242
rtoes 0.259496
lfemur 0.619315 -44.6079 -11.7682
ltibia -4.41988
lfoot -33.7805 58.2607
ltoes 27.1754
1471
root 1.15078 17.5879 8.52886 15.693 -9.25775 -11.1927
lowerback 3.12675 3.55668 -6.15602
upperback -8.35879 4.13002 -1.53349
thorax -11.0577 2.44244 1.24276
lowerneck -8.64393 4.09625 5.68084
upperneck 19.8904 0.901295 19.4631
head 7.61882 2.61307 5.65242
rclavicle 1.18028e-014 0
rhumerus -18.5913 27.7908 -95.9478
rradius 85.5428
rwrist 36.2648
rhand -10.1199 -51.6014
rfingers 7.12502
rthumb 15.8682 -800.971
lclavicle 1.18028e-014 0
lhumerus -6.45281 -13.5771 24.7553
lradius 55.5629
lwrist -21.0653
lhand -46.0139 -68.4103
lfingers 7.12502
lthumb -18.7591 -39.2949
rfemur -11.0273 26.3402 20.0114
rtibia 1.41094
rfoot -10.432 -24.4993
rtoes 0.365406
lfemur 0.696329 -44.7785 -11.8786
ltibia -4.43916
lfoot -34.2027 58.3752
ltoes 27.4781
